<svg xmlns="http://www.w3.org/2000/svg" viewBox="0 0 224.148 106.507">
  <defs>
    <style>
      .cls-1 {
        fill: #d8270e;
      }

      .cls-2 {
        fill: #eb7002;
      }

      .cls-3 {
        fill: #a5c252;
      }

      .cls-4 {
        fill: #3fbaee;
      }

      .cls-5 {
        fill: #0078b8;
      }

      .cls-6 {
        fill: #8b5591;
      }

      .cls-7 {
        fill: #fff;
      }
    </style>
  </defs>
  <title>04e8485d-0863-4277-891c-0d9558ac17ed</title>
  <g id="Artwork">
    <g>
      <path class="cls-1" d="M15.981,103.3v2.671H0V79.268H3.081V103.3Z"/>
      <path class="cls-2" d="M44.253,106.507c-8.134,0-14.3-5.588-14.3-13.886s6.245-13.886,14.3-13.886c8.134,0,14.3,5.588,14.3,13.886S52.305,106.507,44.253,106.507Zm0-2.629a11.257,11.257,0,0,0,0-22.514,11.257,11.257,0,0,0,0,22.514Z"/>
      <path class="cls-3" d="M96.191,83.91A13.38,13.38,0,0,0,88.3,81.364,10.82,10.82,0,0,0,77.045,92.579c0,7.149,4.848,11.094,11.217,11.094a13.32,13.32,0,0,0,8.34-2.383l.9,2.711c-2.711,1.767-5.628,2.506-9.7,2.506-7.066,0-13.846-4.355-13.846-13.928,0-8.257,6.533-13.845,14.34-13.845a14.608,14.608,0,0,1,9.161,2.711Z"/>
      <polygon class="cls-4" points="127.257 79.268 123.642 79.268 112.096 105.974 115.26 105.974 125.079 82.432 125.655 82.432 135.515 105.974 138.761 105.974 127.257 79.268"/>
      <path class="cls-5" d="M157.871,79.268l18.489,23.049-.164-8.176V79.268h2.917v26.706H175.7L157.215,82.761l.287,9.45v13.763h-2.917V79.268Z"/>
      <path class="cls-6" d="M209.85,106.507c-8.134,0-14.3-5.588-14.3-13.886s6.245-13.886,14.3-13.886c8.134,0,14.3,5.588,14.3,13.886S217.9,106.507,209.85,106.507Zm0-2.629a11.257,11.257,0,1,0-11.217-11.257A10.837,10.837,0,0,0,209.85,103.878Z"/>
    </g>
    <g>
      <polygon class="cls-7" points="141.715 59.281 82.433 59.281 82.433 0 112.074 0 112.074 9.654 92.087 9.654 92.087 49.627 132.061 49.627 132.061 29.64 141.715 29.64 141.715 59.281"/>
      <polygon class="cls-7" points="121.728 29.64 112.074 29.64 112.074 19.987 141.343 0.382 121.728 29.64"/>
    </g>
  </g>
</svg>
