<svg xmlns="http://www.w3.org/2000/svg" viewBox="0 0 45.684 22.707">
  <defs>
    <style>
      .cls-1 {
        fill: #fff;
      }
    </style>
  </defs>
  <title>bd94f1ce-f7bd-4e6c-987d-748355a06843</title>
  <g id="Artwork">
    <g>
      <g>
        <path class="cls-1" d="M3.257,22.054V22.6H0V17.156H.628v4.9Z"/>
        <path class="cls-1" d="M9.019,22.707a2.831,2.831,0,1,1,0-5.66,2.831,2.831,0,1,1,0,5.66Zm0-.536a2.294,2.294,0,0,0,0-4.589,2.294,2.294,0,0,0,0,4.589Z"/>
        <path class="cls-1" d="M19.6,18.1A2.727,2.727,0,0,0,18,17.583,2.205,2.205,0,0,0,15.7,19.869a2.133,2.133,0,0,0,2.286,2.261,2.715,2.715,0,0,0,1.7-.486l.184.553a3.388,3.388,0,0,1-1.976.511,2.671,2.671,0,0,1-2.822-2.839A2.81,2.81,0,0,1,18,17.047a2.977,2.977,0,0,1,1.867.553Z"/>
        <polygon class="cls-1" points="25.936 17.156 25.199 17.156 22.846 22.598 23.491 22.598 25.492 17.8 25.61 17.8 27.619 22.598 28.281 22.598 25.936 17.156"/>
        <path class="cls-1" d="M32.176,17.156l3.768,4.7-.034-1.666V17.156H36.5V22.6h-.7l-3.768-4.731.059,1.926V22.6h-.594V17.156Z"/>
        <path class="cls-1" d="M42.769,22.707a2.831,2.831,0,1,1,2.914-2.83A2.767,2.767,0,0,1,42.769,22.707Zm0-.536a2.294,2.294,0,1,0-2.286-2.294A2.209,2.209,0,0,0,42.769,22.171Z"/>
      </g>
      <g>
        <polygon class="cls-1" points="28.883 12.082 16.801 12.082 16.801 0 22.842 0 22.842 1.968 18.768 1.968 18.768 10.115 26.915 10.115 26.915 6.041 28.883 6.041 28.883 12.082"/>
        <polygon class="cls-1" points="24.809 6.041 22.842 6.041 22.842 4.073 28.807 0.078 24.809 6.041"/>
      </g>
    </g>
  </g>
</svg>
